<?xml version="1.0" standalone="no"?>
<!DOCTYPE svg PUBLIC "-//W3C//DTD SVG 20010904//EN"
 "http://www.w3.org/TR/2001/REC-SVG-20010904/DTD/svg10.dtd">
<svg version="1.0" xmlns="http://www.w3.org/2000/svg"
 width="1920.000000pt" height="1080.000000pt" viewBox="0 0 1920.000000 1080.000000"
 preserveAspectRatio="xMidYMid meet">

<g transform="translate(0.000000,1080.000000) scale(0.100000,-0.100000)"
fill="#000000" stroke="none">
<path d="M8449 6164 c-14 -16 -35 -18 -42 -4 -3 6 -4 5 -3 -2 4 -19 31 -21 49
-3 9 8 20 15 26 15 11 0 26 -39 17 -47 -3 -4 -6 -1 -6 5 0 16 -37 15 -46 0 -4
-6 -2 -14 4 -16 16 -5 15 -29 0 -35 -10 -4 -10 -7 0 -15 10 -7 10 -11 -2 -21
-17 -15 -10 -41 11 -41 9 0 13 6 9 15 -3 10 1 15 13 15 12 0 18 -7 17 -17 -1
-13 7 -18 24 -19 96 -3 102 -4 96 -19 -4 -10 1 -15 14 -15 11 0 20 -4 20 -10
0 -5 7 -10 15 -10 10 0 15 10 15 32 l0 31 -22 -19 c-19 -17 -21 -17 -15 -1 4
12 1 17 -11 17 -15 1 -15 2 2 15 11 8 29 12 43 9 12 -4 23 -2 24 2 5 80 6 154
2 139 -3 -11 -9 -25 -14 -32 -7 -7 -5 -13 3 -16 7 -3 3 -6 -9 -6 -12 -1 -25
-5 -28 -11 -8 -12 -35 -13 -35 -1 0 5 11 12 25 15 14 4 25 11 25 16 0 5 -11 3
-23 -3 -30 -16 -62 -47 -48 -47 6 0 11 -4 11 -10 0 -5 -7 -10 -15 -10 -8 0
-15 -6 -15 -14 0 -8 -6 -17 -12 -19 -10 -4 -10 -6 0 -6 18 -1 15 -21 -4 -21
-12 0 -15 6 -10 25 5 18 2 25 -9 25 -18 0 -19 12 -3 28 9 9 9 12 -1 12 -24 0
1 20 27 21 20 1 22 3 8 6 -32 8 -45 27 -29 41 7 7 18 10 24 6 8 -5 8 -9 0 -14
-14 -8 56 -12 81 -4 9 2 19 12 23 21 5 15 4 15 -13 0 -22 -20 -43 -22 -60 -4
-18 17 -139 18 -153 1z m71 -4 c0 -5 -4 -10 -10 -10 -5 0 -10 5 -10 10 0 6 5
10 10 10 6 0 10 -4 10 -10z m0 -75 c0 -20 -5 -25 -25 -25 -18 0 -25 5 -25 18
0 10 3 22 7 25 3 4 15 7 25 7 13 0 18 -7 18 -25z m169 -12 c-22 -28 -43 -42
-61 -43 -10 0 -18 -7 -18 -15 0 -19 -16 -20 -23 -1 -7 17 12 36 36 36 10 0 21
9 24 20 4 13 14 20 30 20 23 0 24 -2 12 -17z m-49 -3 c0 -5 -5 -10 -11 -10 -5
0 -7 5 -4 10 3 6 8 10 11 10 2 0 4 -4 4 -10z"/>
<path d="M8730 6130 l0 -50 50 0 50 0 0 50 0 50 -50 0 -50 0 0 -50z m88 -2 l3
-38 -40 0 c-40 0 -41 1 -41 33 0 42 7 49 45 45 27 -3 30 -7 33 -40z"/>
<path d="M8760 6130 c0 -13 7 -20 20 -20 13 0 20 7 20 20 0 13 -7 20 -20 20
-13 0 -20 -7 -20 -20z"/>
<path d="M8400 6106 c0 -9 7 -16 16 -16 14 0 14 -2 0 -22 -9 -12 -16 -34 -15
-48 0 -15 3 -19 6 -10 3 8 9 17 14 20 4 3 9 23 11 45 2 31 -1 40 -14 43 -11 2
-18 -3 -18 -12z"/>
<path d="M8710 6040 c0 -11 7 -20 15 -20 9 0 12 6 9 15 -4 9 0 15 10 15 14 0
19 -12 19 -45 0 -6 14 -11 31 -10 28 0 31 3 33 35 0 19 -1 25 -4 13 -2 -12
-11 -27 -20 -35 -14 -11 -15 -9 -12 17 5 29 3 30 -38 33 -38 2 -43 0 -43 -18z"/>
<path d="M8412 5976 c-16 -18 -16 -19 17 -13 18 4 42 7 53 7 11 0 18 5 16 13
-7 19 -67 15 -86 -7z"/>
<path d="M8703 5970 c2 -32 0 -35 -28 -37 -16 -2 -31 -7 -33 -13 -5 -15 -22
-12 -22 5 0 16 -47 51 -57 42 -3 -4 -12 1 -19 11 -7 9 -16 13 -21 9 -4 -5 0
-14 10 -21 24 -19 21 -33 -8 -33 -16 0 -25 5 -25 16 0 14 -2 14 -10 1 -8 -13
-11 -13 -19 -1 -12 18 -31 5 -31 -22 0 -16 -3 -18 -12 -9 -15 15 -28 16 -28 2
0 -5 7 -10 15 -10 18 0 20 -17 3 -23 -7 -2 -9 -8 -5 -13 4 -5 12 -2 17 6 6 8
10 10 10 4 0 -6 11 -11 25 -11 14 0 25 3 25 8 0 5 -11 9 -25 9 -14 0 -25 5
-25 10 0 6 25 10 55 10 30 0 55 -4 55 -10 0 -5 -6 -10 -12 -10 -9 0 -8 -4 2
-10 8 -5 10 -10 5 -10 -6 0 -16 5 -23 12 -17 17 -27 2 -12 -17 7 -9 13 -29 12
-46 0 -19 6 -34 18 -41 10 -6 16 -19 13 -27 -3 -11 -2 -12 4 -5 13 18 122 22
128 5 7 -19 16 -8 19 24 3 19 -1 25 -13 23 -26 -4 -41 11 -42 45 -1 18 -3 24
-6 15 -5 -21 -23 -24 -23 -5 0 6 -6 3 -12 -8 -11 -19 -11 -19 -19 0 -7 17 -8
18 -8 3 -1 -29 -19 -21 -23 10 -2 15 3 32 12 39 10 9 11 12 3 13 -7 0 -13 11
-13 25 0 14 3 25 8 25 11 -1 44 -50 32 -50 -5 0 -10 -9 -10 -20 0 -11 5 -20
10 -20 6 0 10 7 10 15 0 13 4 14 20 5 16 -9 20 -8 20 5 0 8 7 15 16 15 12 0
15 -6 10 -25 -6 -23 -4 -25 28 -25 19 0 37 6 40 13 5 10 7 10 12 0 8 -19 74
-17 74 2 0 9 -6 12 -15 9 -12 -5 -15 3 -15 41 0 29 -4 44 -10 40 -6 -4 -18 -1
-26 6 -11 9 -18 9 -26 1 -18 -18 -26 -15 -32 11 -2 12 -4 6 -3 -13z m47 -15
c-11 -13 -8 -15 14 -15 22 0 26 -4 26 -30 0 -28 -2 -30 -32 -26 -18 3 -39 5
-45 5 -7 1 -13 6 -13 11 0 14 27 12 33 -2 3 -7 4 3 2 22 -3 38 1 50 17 50 7 0
6 -6 -2 -15z m-196 -120 c3 -9 11 -15 18 -14 24 3 38 -1 38 -11 0 -5 -6 -10
-14 -10 -8 0 -17 -8 -20 -17 -5 -11 -10 -13 -14 -7 -4 6 -14 14 -22 17 -12 4
-11 6 3 6 21 1 23 19 2 27 -16 7 -21 24 -6 24 5 0 12 -7 15 -15z m86 -24 c0
-5 3 -18 6 -28 5 -15 4 -16 -5 -3 -9 13 -12 13 -20 1 -5 -7 -14 -11 -20 -7 -7
4 -4 13 7 26 19 20 32 25 32 11z"/>
<path d="M8821 5924 c0 -11 3 -14 6 -6 3 7 2 16 -1 19 -3 4 -6 -2 -5 -13z"/>
<path d="M9423 5810 c0 -36 2 -50 4 -32 2 17 2 47 0 65 -2 17 -4 3 -4 -33z"/>
<path d="M9724 5848 c-16 -4 -40 -9 -54 -12 -39 -6 -115 -33 -167 -60 -56 -29
-205 -87 -315 -122 -42 -13 -80 -30 -84 -36 -5 -8 0 -9 17 -4 13 4 53 15 89
25 36 10 80 25 98 35 65 33 269 105 332 116 36 6 82 18 103 26 29 11 80 14
195 14 257 -1 292 -3 302 -20 8 -13 10 -13 10 2 0 18 -11 23 -78 33 -62 10
-414 12 -448 3z"/>
<path d="M8400 5795 l0 -55 50 0 50 0 0 55 0 55 -50 0 -50 0 0 -55z m90 0 c0
-34 -1 -35 -40 -35 -39 0 -40 1 -40 35 0 34 1 35 40 35 39 0 40 -1 40 -35z"/>
<path d="M8430 5795 c0 -18 5 -25 20 -25 15 0 20 7 20 25 0 18 -5 25 -20 25
-15 0 -20 -7 -20 -25z"/>
<path d="M8672 5825 c0 -16 2 -22 5 -12 2 9 2 23 0 30 -3 6 -5 -1 -5 -18z"/>
<path d="M8701 5834 c0 -11 3 -14 6 -6 3 7 2 16 -1 19 -3 4 -6 -2 -5 -13z"/>
<path d="M8730 5795 l0 -55 50 0 50 0 0 55 0 55 -50 0 -50 0 0 -55z m90 0 c0
-34 -1 -35 -40 -35 -39 0 -40 1 -40 35 0 34 1 35 40 35 39 0 40 -1 40 -35z"/>
<path d="M8760 5795 c0 -18 5 -25 20 -25 15 0 20 7 20 25 0 18 -5 25 -20 25
-15 0 -20 -7 -20 -25z"/>
<path d="M10251 5703 l-1 -82 -47 -57 -46 -58 34 20 c71 42 102 130 75 214
l-14 45 -1 -82z"/>
<path d="M8974 5534 c-46 -31 -124 -104 -124 -117 0 -5 19 8 43 29 23 22 63
55 90 73 26 19 47 36 47 38 0 9 -21 0 -56 -23z"/>
<path d="M10110 5485 c-14 -8 -20 -14 -14 -15 5 0 19 7 30 15 24 18 16 19 -16
0z"/>
<path d="M9920 5417 c-92 -35 -147 -63 -100 -52 24 7 99 34 185 68 24 10 32
16 20 16 -11 0 -58 -14 -105 -32z"/>
<path d="M8776 5362 c-54 -41 -98 -94 -61 -74 20 10 123 112 115 112 -3 0 -27
-17 -54 -38z"/>
<path d="M9575 5294 c-38 -14 -89 -30 -113 -37 -24 -7 -42 -17 -40 -22 2 -5 9
-8 16 -7 30 7 42 -19 42 -94 0 -79 13 -99 24 -36 8 53 7 105 -3 122 -8 11 1
20 37 41 26 14 63 30 82 34 19 4 42 11 50 16 32 18 -26 8 -95 -17z"/>
<path d="M8551 5148 c-30 -41 -35 -55 -32 -89 1 -9 -5 -19 -14 -22 -8 -4 -15
-18 -15 -33 0 -15 -7 -32 -16 -38 -10 -8 -14 -24 -12 -46 3 -34 5 -31 47 55
28 56 40 90 32 93 -18 6 -13 17 29 71 26 32 35 51 26 51 -8 0 -28 -19 -45 -42z"/>
<path d="M9657 5097 c-7 -47 3 -125 19 -138 8 -6 14 -17 14 -25 0 -7 10 -20
22 -29 l23 -15 -36 -33 c-61 -54 -73 -82 -72 -156 1 -55 6 -74 27 -106 33 -48
33 -64 -3 -76 -15 -5 -41 -29 -56 -52 -23 -35 -28 -53 -29 -108 -1 -44 4 -72
14 -84 8 -9 19 -26 25 -38 19 -38 74 -59 172 -66 50 -3 95 -9 98 -13 4 -4 -4
-13 -19 -19 -14 -7 -26 -16 -26 -21 0 -13 48 -9 57 5 4 6 23 20 41 30 29 14
62 17 223 17 177 0 190 1 206 20 10 11 27 20 38 20 23 0 65 38 65 59 0 7 7 20
16 29 26 26 13 131 -21 168 -14 15 -23 32 -20 38 3 6 8 19 11 29 4 9 11 17 17
17 16 0 57 49 57 69 0 11 7 21 15 25 20 7 21 99 1 115 -7 6 -16 24 -19 39 -4
17 -16 33 -32 40 l-26 12 21 30 c12 17 26 30 31 30 5 0 9 7 9 15 0 9 9 15 24
15 14 0 31 -7 40 -15 8 -8 18 -15 22 -15 4 0 12 -7 19 -17 19 -26 127 -19 159
10 22 21 24 27 20 116 -3 52 -7 97 -9 100 -13 12 -18 -17 -19 -104 -1 -106 -6
-115 -64 -115 -38 0 -94 23 -114 47 -7 9 -15 52 -18 97 -5 75 -7 81 -27 84
-23 3 -31 -12 -13 -23 17 -10 11 -79 -10 -122 -11 -23 -35 -51 -53 -62 -33
-20 -47 -21 -359 -21 l-325 0 -42 30 c-52 38 -64 69 -57 143 5 51 4 57 -13 57
-13 0 -20 -9 -24 -33z m732 -248 c64 -11 70 -14 92 -50 13 -21 27 -39 32 -39
10 0 9 -98 -2 -105 -5 -3 -12 -18 -16 -33 -4 -16 -21 -36 -41 -49 -35 -23 -40
-23 -359 -23 -289 0 -328 2 -358 17 -52 27 -71 59 -75 128 -3 54 -1 64 26 100
22 29 42 43 74 51 58 16 537 18 627 3z m-10 -355 c77 -38 103 -130 58 -209
-40 -72 -50 -74 -408 -76 l-316 -1 -41 26 c-23 14 -48 39 -57 55 -23 45 -19
116 8 152 45 62 53 63 377 69 320 6 336 5 379 -16z"/>
<path d="M9416 5058 c-3 -7 -7 -26 -11 -42 -9 -41 -63 -121 -128 -193 -32 -33
-57 -63 -57 -67 0 -28 69 28 139 114 11 14 25 30 30 37 6 6 13 23 17 37 3 14
10 26 15 26 4 0 12 15 17 33 6 17 13 40 17 50 5 13 2 17 -14 17 -12 0 -23 -6
-25 -12z"/>
<path d="M8424 4841 c-4 -17 -10 -31 -15 -31 -4 0 -11 -10 -15 -22 -3 -12 -27
-43 -53 -70 -25 -26 -59 -61 -74 -78 -30 -32 -64 -39 -73 -15 -10 26 -44 16
-77 -21 -18 -20 -77 -82 -132 -139 -125 -130 -165 -179 -165 -202 0 -10 174
-191 405 -422 l404 -404 25 16 c13 9 44 39 68 68 24 28 91 101 150 163 105
109 132 142 154 181 9 16 25 21 74 25 60 5 92 24 53 32 -17 3 -114 -13 -158
-27 -21 -6 -27 -2 -445 400 -75 72 -171 161 -213 198 -42 38 -77 76 -77 85 0
10 36 53 80 97 77 76 105 117 112 166 5 35 -21 35 -28 0z"/>
<path d="M9779 4095 c-27 -16 -30 -17 -79 -34 -68 -23 -155 -50 -182 -56 -44
-9 -33 -25 16 -25 29 0 51 6 62 17 10 10 29 16 44 15 15 -2 34 3 42 11 8 8 29
18 48 22 19 4 40 14 48 21 7 8 20 14 28 14 8 0 14 4 14 9 0 18 -16 20 -41 6z"/>
<path d="M9402 3979 c-29 -5 -61 -13 -70 -18 -9 -5 -45 -12 -80 -16 -90 -10
-87 -25 6 -25 62 0 81 3 86 15 4 11 21 15 60 15 65 0 87 7 79 26 -6 15 -5 15
-81 3z"/>
</g>
</svg>
